<mxfile host="Electron" agent="Mozilla/5.0 (X11; Linux x86_64) AppleWebKit/537.36 (KHTML, like Gecko) draw.io/28.1.2 Chrome/138.0.7204.243 Electron/37.4.0 Safari/537.36" version="28.1.2">
  <diagram name="Página-1" id="vP5Z9K9J0nkLBCaHGK-g">
    <mxGraphModel dx="601" dy="366" grid="1" gridSize="10" guides="1" tooltips="1" connect="1" arrows="1" fold="1" page="1" pageScale="1" pageWidth="827" pageHeight="1169" math="0" shadow="0">
      <root>
        <mxCell id="0" />
        <mxCell id="1" parent="0" />
        <mxCell id="wqmRzEqaW1yttVisP-Qp-2" value="" style="endArrow=none;dashed=1;html=1;dashPattern=1 3;strokeWidth=2;rounded=0;" edge="1" parent="1">
          <mxGeometry width="50" height="50" relative="1" as="geometry">
            <mxPoint x="400" y="380" as="sourcePoint" />
            <mxPoint x="400" y="40" as="targetPoint" />
          </mxGeometry>
        </mxCell>
        <mxCell id="wqmRzEqaW1yttVisP-Qp-3" value="&lt;h1 style=&quot;margin-top: 0px;&quot;&gt;Solución 1&lt;/h1&gt;" style="text;html=1;whiteSpace=wrap;overflow=hidden;rounded=0;" vertex="1" parent="1">
          <mxGeometry x="100" y="30" width="160" height="40" as="geometry" />
        </mxCell>
        <mxCell id="wqmRzEqaW1yttVisP-Qp-4" value="&lt;h1 style=&quot;margin-top: 0px;&quot;&gt;Solución 2&lt;/h1&gt;" style="text;html=1;whiteSpace=wrap;overflow=hidden;rounded=0;" vertex="1" parent="1">
          <mxGeometry x="480" y="30" width="170" height="40" as="geometry" />
        </mxCell>
        <mxCell id="wqmRzEqaW1yttVisP-Qp-5" value="Esperando ingreso de número" style="rounded=0;whiteSpace=wrap;html=1;" vertex="1" parent="1">
          <mxGeometry x="30" y="150" width="120" height="60" as="geometry" />
        </mxCell>
        <mxCell id="wqmRzEqaW1yttVisP-Qp-6" value="Validando&amp;nbsp; número" style="rounded=0;whiteSpace=wrap;html=1;" vertex="1" parent="1">
          <mxGeometry x="30" y="280" width="120" height="60" as="geometry" />
        </mxCell>
        <mxCell id="wqmRzEqaW1yttVisP-Qp-7" value="" style="endArrow=classic;html=1;rounded=0;entryX=0.5;entryY=0;entryDx=0;entryDy=0;" edge="1" parent="1" target="wqmRzEqaW1yttVisP-Qp-5">
          <mxGeometry width="50" height="50" relative="1" as="geometry">
            <mxPoint x="90" y="100" as="sourcePoint" />
            <mxPoint x="440" y="230" as="targetPoint" />
          </mxGeometry>
        </mxCell>
        <mxCell id="wqmRzEqaW1yttVisP-Qp-8" value="" style="ellipse;whiteSpace=wrap;html=1;aspect=fixed;fillColor=#000000;" vertex="1" parent="1">
          <mxGeometry x="75" y="85" width="25" height="25" as="geometry" />
        </mxCell>
        <mxCell id="wqmRzEqaW1yttVisP-Qp-9" value="" style="endArrow=classic;html=1;rounded=0;exitX=1;exitY=0.25;exitDx=0;exitDy=0;entryX=1;entryY=0.75;entryDx=0;entryDy=0;" edge="1" parent="1" source="wqmRzEqaW1yttVisP-Qp-5" target="wqmRzEqaW1yttVisP-Qp-5">
          <mxGeometry width="50" height="50" relative="1" as="geometry">
            <mxPoint x="270" y="280" as="sourcePoint" />
            <mxPoint x="320" y="230" as="targetPoint" />
            <Array as="points">
              <mxPoint x="260" y="160" />
              <mxPoint x="310" y="180" />
              <mxPoint x="280" y="210" />
            </Array>
          </mxGeometry>
        </mxCell>
        <mxCell id="wqmRzEqaW1yttVisP-Qp-10" value="" style="endArrow=classic;html=1;rounded=0;exitX=0.5;exitY=1;exitDx=0;exitDy=0;entryX=0.5;entryY=0;entryDx=0;entryDy=0;" edge="1" parent="1" source="wqmRzEqaW1yttVisP-Qp-5" target="wqmRzEqaW1yttVisP-Qp-6">
          <mxGeometry width="50" height="50" relative="1" as="geometry">
            <mxPoint x="270" y="280" as="sourcePoint" />
            <mxPoint x="320" y="230" as="targetPoint" />
          </mxGeometry>
        </mxCell>
        <mxCell id="wqmRzEqaW1yttVisP-Qp-11" value="" style="endArrow=classic;html=1;rounded=0;exitX=1;exitY=0.25;exitDx=0;exitDy=0;" edge="1" parent="1" source="wqmRzEqaW1yttVisP-Qp-6" target="wqmRzEqaW1yttVisP-Qp-12">
          <mxGeometry width="50" height="50" relative="1" as="geometry">
            <mxPoint x="270" y="280" as="sourcePoint" />
            <mxPoint x="290" y="280" as="targetPoint" />
          </mxGeometry>
        </mxCell>
        <mxCell id="wqmRzEqaW1yttVisP-Qp-12" value="" style="ellipse;whiteSpace=wrap;html=1;aspect=fixed;fillStyle=dots;fillColor=#000000;" vertex="1" parent="1">
          <mxGeometry x="320" y="270" width="30" height="30" as="geometry" />
        </mxCell>
        <mxCell id="wqmRzEqaW1yttVisP-Qp-13" value="" style="ellipse;whiteSpace=wrap;html=1;aspect=fixed;fillColor=#000000;fillStyle=dots;" vertex="1" parent="1">
          <mxGeometry x="310" y="360" width="30" height="30" as="geometry" />
        </mxCell>
        <mxCell id="wqmRzEqaW1yttVisP-Qp-14" value="" style="endArrow=classic;html=1;rounded=0;exitX=1;exitY=0.75;exitDx=0;exitDy=0;entryX=0;entryY=0.5;entryDx=0;entryDy=0;" edge="1" parent="1" source="wqmRzEqaW1yttVisP-Qp-6" target="wqmRzEqaW1yttVisP-Qp-13">
          <mxGeometry width="50" height="50" relative="1" as="geometry">
            <mxPoint x="270" y="280" as="sourcePoint" />
            <mxPoint x="320" y="230" as="targetPoint" />
          </mxGeometry>
        </mxCell>
        <mxCell id="wqmRzEqaW1yttVisP-Qp-16" value="Se presiona el botón &quot;aceptar&quot;" style="text;html=1;align=center;verticalAlign=middle;whiteSpace=wrap;rounded=0;" vertex="1" parent="1">
          <mxGeometry x="90" y="230" width="170" height="30" as="geometry" />
        </mxCell>
        <mxCell id="wqmRzEqaW1yttVisP-Qp-17" value="Se presiona un digito / actualizar numero" style="text;html=1;align=center;verticalAlign=middle;whiteSpace=wrap;rounded=0;" vertex="1" parent="1">
          <mxGeometry x="75" y="100" width="265" height="30" as="geometry" />
        </mxCell>
        <mxCell id="wqmRzEqaW1yttVisP-Qp-18" value="Se presiona un digito / actualizar número" style="text;html=1;align=left;verticalAlign=middle;whiteSpace=wrap;rounded=0;" vertex="1" parent="1">
          <mxGeometry x="150" y="130" width="240" height="30" as="geometry" />
        </mxCell>
        <mxCell id="wqmRzEqaW1yttVisP-Qp-19" value="Termino validación [validación correcta] / abrir puerta" style="text;html=1;align=left;verticalAlign=middle;whiteSpace=wrap;rounded=0;" vertex="1" parent="1">
          <mxGeometry x="170" y="300" width="230" height="30" as="geometry" />
        </mxCell>
        <mxCell id="wqmRzEqaW1yttVisP-Qp-20" value="Terminó la validación [validación incorrecta] / mostrar mensaje de error" style="text;html=1;align=left;verticalAlign=middle;whiteSpace=wrap;rounded=0;rotation=15;" vertex="1" parent="1">
          <mxGeometry x="150" y="380.06" width="215" height="30" as="geometry" />
        </mxCell>
        <mxCell id="wqmRzEqaW1yttVisP-Qp-21" value="" style="ellipse;whiteSpace=wrap;html=1;aspect=fixed;fillColor=#000000;" vertex="1" parent="1">
          <mxGeometry x="450" y="90" width="30" height="30" as="geometry" />
        </mxCell>
        <mxCell id="wqmRzEqaW1yttVisP-Qp-22" value="" style="endArrow=classic;html=1;rounded=0;exitX=0.5;exitY=1;exitDx=0;exitDy=0;" edge="1" parent="1" source="wqmRzEqaW1yttVisP-Qp-21" target="wqmRzEqaW1yttVisP-Qp-23">
          <mxGeometry width="50" height="50" relative="1" as="geometry">
            <mxPoint x="270" y="280" as="sourcePoint" />
            <mxPoint x="465" y="170" as="targetPoint" />
          </mxGeometry>
        </mxCell>
        <mxCell id="wqmRzEqaW1yttVisP-Qp-23" value="Esperando Ingreso&lt;div&gt;de numero&lt;/div&gt;" style="rounded=0;whiteSpace=wrap;html=1;" vertex="1" parent="1">
          <mxGeometry x="414" y="170" width="120" height="60" as="geometry" />
        </mxCell>
        <mxCell id="wqmRzEqaW1yttVisP-Qp-26" value="" style="endArrow=classic;html=1;rounded=0;exitX=1;exitY=0.25;exitDx=0;exitDy=0;entryX=1;entryY=1;entryDx=0;entryDy=0;" edge="1" parent="1" source="wqmRzEqaW1yttVisP-Qp-23" target="wqmRzEqaW1yttVisP-Qp-23">
          <mxGeometry width="50" height="50" relative="1" as="geometry">
            <mxPoint x="270" y="280" as="sourcePoint" />
            <mxPoint x="670" y="200" as="targetPoint" />
            <Array as="points">
              <mxPoint x="610" y="185" />
              <mxPoint x="640" y="210" />
            </Array>
          </mxGeometry>
        </mxCell>
        <mxCell id="wqmRzEqaW1yttVisP-Qp-28" value="Se presiona un digito / actualizar número" style="text;html=1;align=center;verticalAlign=middle;whiteSpace=wrap;rounded=0;" vertex="1" parent="1">
          <mxGeometry x="590" y="150" width="120" height="30" as="geometry" />
        </mxCell>
        <mxCell id="wqmRzEqaW1yttVisP-Qp-29" value="" style="endArrow=classic;html=1;rounded=0;exitX=0.075;exitY=1;exitDx=0;exitDy=0;exitPerimeter=0;" edge="1" parent="1" source="wqmRzEqaW1yttVisP-Qp-23" target="wqmRzEqaW1yttVisP-Qp-30">
          <mxGeometry width="50" height="50" relative="1" as="geometry">
            <mxPoint x="270" y="280" as="sourcePoint" />
            <mxPoint x="430" y="330" as="targetPoint" />
          </mxGeometry>
        </mxCell>
        <mxCell id="wqmRzEqaW1yttVisP-Qp-30" value="" style="ellipse;whiteSpace=wrap;html=1;aspect=fixed;fillColor=#000000;fillStyle=dots;" vertex="1" parent="1">
          <mxGeometry x="450" y="370" width="30" height="30" as="geometry" />
        </mxCell>
        <mxCell id="wqmRzEqaW1yttVisP-Qp-31" value="Se presiona el botón &quot;aceptar&quot; [validacion incorrecta] / Mostrar mensaje de error" style="text;html=1;align=left;verticalAlign=middle;whiteSpace=wrap;rounded=0;rotation=60;" vertex="1" parent="1">
          <mxGeometry x="404" y="300" width="166" height="60" as="geometry" />
        </mxCell>
        <mxCell id="wqmRzEqaW1yttVisP-Qp-35" value="" style="endArrow=classic;html=1;rounded=0;exitX=0.75;exitY=1;exitDx=0;exitDy=0;" edge="1" parent="1" source="wqmRzEqaW1yttVisP-Qp-23">
          <mxGeometry width="50" height="50" relative="1" as="geometry">
            <mxPoint x="504" y="230" as="sourcePoint" />
            <mxPoint x="636" y="366" as="targetPoint" />
          </mxGeometry>
        </mxCell>
        <mxCell id="wqmRzEqaW1yttVisP-Qp-34" value="" style="ellipse;whiteSpace=wrap;html=1;aspect=fixed;fillColor=#000000;fillStyle=dots;" vertex="1" parent="1">
          <mxGeometry x="630" y="360" width="40" height="40" as="geometry" />
        </mxCell>
        <mxCell id="wqmRzEqaW1yttVisP-Qp-36" value="Se presiona el botón &quot;aceptar &quot; [validación correcta] / abrir puerta" style="text;html=1;align=left;verticalAlign=middle;whiteSpace=wrap;rounded=0;rotation=40;" vertex="1" parent="1">
          <mxGeometry x="560" y="300" width="180" height="30" as="geometry" />
        </mxCell>
        <mxCell id="wqmRzEqaW1yttVisP-Qp-37" value="Discusión de soluciones" style="swimlane;whiteSpace=wrap;html=1;" vertex="1" parent="1">
          <mxGeometry x="40" y="460" width="650" height="200" as="geometry" />
        </mxCell>
        <mxCell id="wqmRzEqaW1yttVisP-Qp-38" value="Text" style="text;html=1;align=center;verticalAlign=middle;resizable=0;points=[];autosize=1;strokeColor=none;fillColor=none;" vertex="1" parent="1">
          <mxGeometry x="55" y="508" width="50" height="30" as="geometry" />
        </mxCell>
      </root>
    </mxGraphModel>
  </diagram>
</mxfile>
